# xmcd
#
# Track frame offsets: 
#        150
#        13997
#        29400
#        50362
#        64207
#        83052
#        96642
#        113467
#        127100
#        144297
#        160752
#        176657
#        195262
#        207777
#        221920
#        237322
#        256609
#
# Disc length: 3664 seconds
#
# Revision: 0
# Processed by: cddbd v1.5.2PL0 Copyright (c) Steve Scherf et al.
# Submitted via: ExactAudioCopyFreeDBPlugin 1.0
#
DISCID=ec0e4e11
DTITLE=Chris Whitley - Long Way Around: An Anthology (1991-2001)
DYEAR=2003
DGENRE=Blues
TTITLE0=Home Is Where You Get Across (Demo)
TTITLE1=Make The Dirt Stick
TTITLE2=Big Sky Country
TTITLE3=Weightless (Daniel Lanois Single Remix)
TTITLE4=Bordertown
TTITLE5=Bliss To Breakdown (Demo)
TTITLE6=Aerial (Edit)
TTITLE7=WPL (Wild Pagan Love) (Previously Unreleased Alternate Mix)
TTITLE8=Narcotic Prayer (Previously Unreleased Alternate Mix)
TTITLE9=A Pint Of Lotion (Demo)
TTITLE10=Guns and Dolls
TTITLE11=Can't Get Off
TTITLE12=Cool Wooden Crosses
TTITLE13=The Wild Country
TTITLE14=Accordingly
TTITLE15=Say Goodbye
TTITLE16=Long Way Around (Demo)
EXTD=
EXTT0=
EXTT1=
EXTT2=
EXTT3=
EXTT4=
EXTT5=
EXTT6=
EXTT7=
EXTT8=
EXTT9=
EXTT10=
EXTT11=
EXTT12=
EXTT13=
EXTT14=
EXTT15=
EXTT16=
PLAYORDER=
